<?xml version="1.0" encoding="UTF-8" standalone="no"?>
<svg width="53px" height="60px" viewBox="0 0 53 60" version="1.1" xmlns="http://www.w3.org/2000/svg" xmlns:xlink="http://www.w3.org/1999/xlink">
    <!-- Generator: Sketch 49.3 (51167) - http://www.bohemiancoding.com/sketch -->
    <title>icon-我发起的</title>
    <desc>Created with Sketch.</desc>
    <defs></defs>
    <g id="0525-蓝色-审核" stroke="none" stroke-width="1" fill="none" fill-rule="evenodd">
        <g id="0627切图" transform="translate(-244.000000, -560.000000)" fill="#FF9500" fill-rule="nonzero">
            <g id="icon-我发起的" transform="translate(244.000000, 560.000000)">
                <polygon id="Shape" points="37.5014654 0 37.5014654 15 52.5 15"></polygon>
                <path d="M33.7507327,18.7521981 L33.7507327,0.00219814453 L7.50073271,0.00219814453 C3.35938562,0.0030065941 0.0020222794,3.35938604 0,7.50073271 L0,52.4992673 C0.000809031918,56.6414724 3.35852758,59.999191 7.50073271,60 L44.9985346,60 C49.1411934,60 52.4995954,56.6419261 52.5,52.4992673 L52.5,18.7521981 L33.7507327,18.7521981 Z M8.20633061,12.2369578 C8.20633059,12.0620642 8.27580681,11.8943337 8.39947529,11.7706652 C8.52314377,11.6469967 8.69087422,11.5775205 8.86576787,11.5775205 L28.1359906,11.5775205 C28.3108843,11.5775205 28.4786147,11.6469967 28.6022832,11.7706652 C28.7259517,11.8943337 28.7954279,12.0620642 28.7954279,12.2369578 L28.7954279,14.6548945 C28.7954279,14.8297881 28.7259517,14.9975186 28.6022832,15.1211871 C28.4786147,15.2448556 28.3108843,15.3143318 28.1359906,15.3143318 L8.86576787,15.3143318 C8.69087422,15.3143318 8.52314377,15.2448556 8.39947529,15.1211871 C8.27580681,14.9975186 8.20633059,14.8297881 8.20633061,14.6548945 L8.20633061,12.2369578 Z M8.02315359,23.042204 L8.02315359,20.6242673 C8.02315359,20.2600701 8.31839371,19.96483 8.68259086,19.96483 L21.6881595,19.96483 C22.0523566,19.96483 22.3475967,20.2600701 22.3475967,20.6242673 L22.3475967,23.042204 C22.3475967,23.4064011 22.0523566,23.7016413 21.6881595,23.7016413 L8.68332357,23.7016413 C8.5084299,23.7018357 8.3406222,23.6325459 8.21681629,23.5090148 C8.09301037,23.3854837 8.02334781,23.2178304 8.02315359,23.0429367 L8.02315359,23.042204 Z M40.0058617,37.8758793 L28.71483,49.1669109 C27.8289145,50.0237553 26.4195998,50.0120017 25.5480986,49.1405005 C24.6765974,48.2689993 24.6648438,46.8596846 25.5216882,45.9737691 L32.9557444,38.5411782 L11.3086167,38.5411782 C10.7096435,38.5413726 10.1351469,38.3035176 9.71160891,37.8799796 C9.28807091,37.4564416 9.05021587,36.881945 9.05041031,36.2829718 C9.05021589,35.6839987 9.28807094,35.1095021 9.71160893,34.6859641 C10.1351469,34.2624261 10.7096435,34.0245711 11.3086167,34.0247655 L32.9557444,34.0247655 L25.51949,26.5885112 C25.0961574,26.1651572 24.8588613,25.5906369 24.8600528,24.9919402 C24.8602324,24.078719 25.4104246,23.2554992 26.254141,22.9060489 C27.0978575,22.5565985 28.0689953,22.7497142 28.71483,23.3953693 L40.0058617,34.686401 C40.8854143,35.5676468 40.8854143,36.9946334 40.0058617,37.8758793 Z" id="Shape"></path>
            </g>
        </g>
    </g>
</svg>