<?xml version="1.0" encoding="UTF-8" standalone="no"?>
<svg width="24px" height="24px" viewBox="0 0 24 24" version="1.1" xmlns="http://www.w3.org/2000/svg" xmlns:xlink="http://www.w3.org/1999/xlink">
    <!-- Generator: Sketch 49.3 (51167) - http://www.bohemiancoding.com/sketch -->
    <title>icon-审批意见</title>
    <desc>Created with Sketch.</desc>
    <defs></defs>
    <g id="1105-审批优化" stroke="none" stroke-width="1" fill="none" fill-rule="evenodd">
        <g id="Artboard" transform="translate(-254.000000, -281.000000)" fill="#000000" fill-rule="nonzero">
            <g id="icon-审批意见" transform="translate(254.000000, 281.500000)">
                <path d="M20.1538534,18.2355321 L14.4020663,18.2355321 L11.5261727,22.0700569 L8.65027917,18.2355321 L3.85712322,18.2355321 C1.73937368,18.2355321 0.0225984716,16.5187569 0.0225984713,14.4010074 L0.0225984713,3.85606432 C0.0225984718,1.73831477 1.73937368,0.0215395645 3.85712322,0.0215395645 L20.1538534,0.0215395645 C22.271603,0.0215395645 23.9883782,1.73831477 23.9883782,3.85606432 L23.9883782,14.4010074 C23.9883782,16.5187569 22.271603,18.2355321 20.1538534,18.2355321 Z M5.29507001,7.69058907 C4.50091393,7.69058907 3.85712322,8.33437977 3.85712322,9.12853585 C3.85712322,9.92269193 4.50091393,10.5664826 5.29507001,10.5664826 C6.08922609,10.5664826 6.73301679,9.92269193 6.73301679,9.12853585 C6.73301679,8.33437977 6.08922609,7.69058907 5.29507001,7.69058907 Z M12.0054883,7.69058907 C11.2113322,7.69058907 10.5675415,8.33437977 10.5675415,9.12853585 C10.5675415,9.92269193 11.2113322,10.5664826 12.0054883,10.5664826 C12.7996444,10.5664826 13.4434351,9.92269193 13.4434351,9.12853585 C13.4434351,8.33437977 12.7996444,7.69058907 12.0054883,7.69058907 Z M18.7159066,7.69058907 C17.9217506,7.69058907 17.2779599,8.33437977 17.2779599,9.12853585 C17.2779599,9.92269193 17.9217506,10.5664826 18.7159066,10.5664826 C19.5100627,10.5664826 20.1538534,9.92269193 20.1538534,9.12853585 C20.1538534,8.33437977 19.5100627,7.69058907 18.7159066,7.69058907 Z" id="Shape"></path>
            </g>
        </g>
    </g>
</svg>