<?xml version="1.0" encoding="UTF-8" standalone="no"?>
<svg width="60px" height="61px" viewBox="0 0 60 61" version="1.1" xmlns="http://www.w3.org/2000/svg" xmlns:xlink="http://www.w3.org/1999/xlink">
    <!-- Generator: Sketch 49.3 (51167) - http://www.bohemiancoding.com/sketch -->
    <title>icon-我审批的</title>
    <desc>Created with Sketch.</desc>
    <defs></defs>
    <g id="0525-蓝色-审核" stroke="none" stroke-width="1" fill="none" fill-rule="evenodd">
        <g id="0627切图" transform="translate(-127.000000, -562.000000)" fill="#FF9500" fill-rule="nonzero">
            <g id="icon-我审批的" transform="translate(127.000000, 562.000000)">
                <path d="M59.9916318,51.4617573 L0.00836817992,51.4617573 L0.00836817992,46.4788619 C0.00836817992,44.4822761 1.98781588,42.8584435 4.42999161,42.8584435 L12.5577238,42.8584435 C17.4292218,42.3143096 21.1910293,39.8507113 21.1910293,35.7118661 C21.1910293,31.6287197 18.7745606,29.0280168 18.7745606,29.0280168 C14.4257741,26.0117155 12.0050209,21.5558159 12.0050209,16.5172218 C11.9964519,7.42118831 18.9030962,0.0475313598 30,0.0475313598 C41.0969038,0.0475313598 47.9949791,7.42118824 47.9949791,16.5172218 C47.9949791,21.5558159 45.5656569,26.007431 41.2254394,29.0280168 C41.2254394,29.0280168 38.753272,31.6501423 38.753272,35.7118661 C38.753272,39.8507113 42.519364,42.3143096 47.3865774,42.8584435 L55.5700084,42.8584435 C58.0121841,42.8584435 59.9916318,44.4822762 59.9916318,46.4788619 L59.9916318,51.4617573 Z M55.6771213,55.7462762 L4.32287868,55.7462762 C4.30574059,55.7462762 4.29288703,55.7591297 4.29288703,55.7805523 L4.29288703,60.030795 L55.707113,60.030795 L55.707113,55.7805523 C55.707113,55.7591297 55.6942594,55.7462762 55.6771213,55.7462762 Z" id="Shape"></path>
            </g>
        </g>
    </g>
</svg>